<?xml version="1.0" encoding="UTF-8"?>
<svg width="800px" height="600px" viewBox="0 0 800 600" version="1.1" xmlns="http://www.w3.org/2000/svg">
    <defs>
        <linearGradient x1="0%" y1="0%" x2="100%" y2="100%" id="gradient1">
            <stop stop-color="#3B82F6" offset="0%"/>
            <stop stop-color="#06B6D4" offset="100%"/>
        </linearGradient>
        <linearGradient x1="100%" y1="0%" x2="0%" y2="100%" id="gradient2">
            <stop stop-color="#2563EB" offset="0%"/>
            <stop stop-color="#0891B2" offset="100%"/>
        </linearGradient>
    </defs>
    <g stroke="none" stroke-width="1" fill="none" fill-rule="evenodd">
        <!-- Background Elements -->
        <circle fill="url(#gradient1)" opacity="0.1" cx="600" cy="150" r="100"/>
        <circle fill="url(#gradient2)" opacity="0.1" cx="200" cy="450" r="80"/>
        
        <!-- Cryptocurrency Symbols -->
        <g transform="translate(300, 200)" fill="url(#gradient1)">
            <path d="M50,0 L90,70 L10,70 Z"/>
            <circle cx="50" cy="35" r="20"/>
        </g>
        
        <g transform="translate(500, 300)" fill="url(#gradient2)">
            <rect x="0" y="0" width="60" height="60" rx="30"/>
            <path d="M30,15 L30,45 M15,30 L45,30" stroke="#FFFFFF" stroke-width="4"/>
        </g>
        
        <!-- Connected Lines -->
        <path d="M200,200 C300,250 400,150 500,200" stroke="url(#gradient1)" stroke-width="2" opacity="0.5"/>
        <path d="M300,400 C400,350 500,450 600,400" stroke="url(#gradient2)" stroke-width="2" opacity="0.5"/>
        
        <!-- Floating Elements -->
        <g transform="translate(400, 300)">
            <rect x="-20" y="-20" width="40" height="40" rx="8" fill="url(#gradient1)" opacity="0.8"/>
            <circle cx="0" cy="0" r="15" fill="#FFFFFF"/>
        </g>
        
        <!-- Abstract Shapes -->
        <path d="M650,250 C700,200 750,300 700,350 C650,400 600,350 650,250" fill="url(#gradient2)" opacity="0.2"/>
        <path d="M150,350 C200,300 250,400 200,450 C150,500 100,450 150,350" fill="url(#gradient1)" opacity="0.2"/>
    </g>
</svg> 